<?xml version="1.0" encoding="UTF-8"?>
<svg version="1.1" xmlns="http://www.w3.org/2000/svg" width="1500" height="740">
<path d="M0 0 C1.30912474 -0.0075668 2.61824949 -0.0151336 3.96704468 -0.0229297 C7.59692403 -0.04319439 11.2261442 -0.03243468 14.85602075 -0.01654012 C18.80646837 -0.00474712 22.75680832 -0.02194716 26.70723587 -0.03542262 C33.62962207 -0.05501797 40.55181732 -0.05600423 47.47421932 -0.04477787 C57.76805147 -0.02812884 68.06171321 -0.04001645 78.35553688 -0.05748572 C96.74005361 -0.08769787 115.12448863 -0.08911522 133.50902198 -0.0781327 C149.59814054 -0.06854835 165.68722773 -0.06782686 181.77634716 -0.07601833 C183.93361673 -0.07708412 186.09088631 -0.07814967 188.24815588 -0.07921496 C191.49886771 -0.08083601 194.74957953 -0.08246831 198.00029134 -0.08412799 C228.22630479 -0.0993869 258.45230768 -0.10488459 288.67832184 -0.08953094 C290.38778024 -0.08866279 290.38778024 -0.08866279 292.13177315 -0.0877771 C301.38675071 -0.08301227 310.64172812 -0.07795437 319.89670551 -0.07287937 C356.00209842 -0.05328502 392.1073795 -0.06249122 428.21276188 -0.09529591 C468.76860736 -0.13206597 509.32438736 -0.14917598 549.88024956 -0.13588363 C554.20311867 -0.13452611 558.52598779 -0.13322605 562.84885693 -0.13195705 C564.44548136 -0.13146511 564.44548136 -0.13146511 566.07436083 -0.13096322 C582.15334291 -0.12638304 598.23226913 -0.13703147 614.3112402 -0.15520763 C632.59321731 -0.17581878 650.87505482 -0.17527884 669.15702396 -0.14657523 C679.39084212 -0.1311199 689.62434282 -0.13222815 699.85814417 -0.15710227 C706.69218202 -0.17205111 713.52597333 -0.16522278 720.35998265 -0.1406127 C724.2550786 -0.12719578 728.14954869 -0.1232355 732.04461711 -0.14569398 C736.24131627 -0.16965757 740.43649828 -0.14722006 744.63317871 -0.12025452 C745.84128628 -0.13458736 747.04939385 -0.14892021 748.29411075 -0.16368738 C756.14329495 -0.06070235 761.79513143 1.50848684 767.87950993 6.63199902 C770.21311951 9.48937654 772.13245911 12.38578973 773.87950993 15.63199902 C774.22770314 16.25247018 774.57589636 16.87294134 774.93464088 17.51221466 C775.94175805 19.77165075 776.1371684 21.24034859 776.15366459 23.6969862 C776.16363972 24.49723721 776.17361485 25.29748821 776.18389225 26.12198925 C776.18455692 26.99113964 776.1852216 27.86029003 776.18590641 28.75577831 C776.19422993 29.67824856 776.20255344 30.6007188 776.21112919 31.55114269 C776.23523642 34.60287729 776.24400345 37.65439802 776.25060368 40.70621777 C776.25957141 42.83128453 776.26869329 44.95635066 776.27796268 47.08141613 C776.29445858 51.53929204 776.30215356 55.99709281 776.30504704 60.45499706 C776.31042287 66.15347813 776.34806778 71.85124764 776.3937912 77.54952812 C776.42361269 81.94117303 776.43077175 86.33264792 776.43177319 90.72438526 C776.4359675 92.82425021 776.44836994 94.92411604 776.46929073 97.02388096 C776.49630221 99.9701926 776.49134974 102.9148727 776.47887516 105.86124706 C776.50112659 107.14979092 776.50112659 107.14979092 776.52382755 108.46436596 C776.43330083 116.01487366 773.57967189 121.44896138 768.73888493 127.15543652 C768.04279118 127.76645214 767.34669743 128.37746777 766.62950993 129.00699902 C765.94372868 129.63348339 765.25794743 130.25996777 764.55138493 130.90543652 C757.37401761 135.54344288 750.02112271 136.06216756 741.66832829 135.97257519 C740.58436771 135.97301327 739.50040714 135.97345135 738.38359928 135.9739027 C734.8286625 135.97182575 731.27420728 135.94854592 727.71935368 135.92496777 C725.24357199 135.91936794 722.76778697 135.91509967 720.29200077 135.91210461 C713.7966213 135.90068639 707.30144517 135.87124505 700.80614567 135.83799267 C694.16981732 135.80722662 687.53346895 135.79358533 680.89708805 135.77848339 C667.89114225 135.74637261 654.88533694 135.69579482 641.87950993 135.63199902 C641.88839237 136.33642132 641.89727482 137.04084362 641.90642643 137.76661205 C641.98697827 144.44454796 642.04767862 151.12234589 642.08675861 157.80066013 C642.10752649 161.23309669 642.13564204 164.66512777 642.18126774 168.09733105 C642.2335309 172.05414809 642.25254449 176.0108079 642.27013493 179.96793652 C642.29078007 181.18500286 642.31142521 182.40206921 642.33269596 183.65601635 C642.33496374 192.36649286 640.95226156 199.85051885 635.62950993 206.94449902 C628.29039689 214.11681403 622.09289442 215.78688291 612.00847721 215.75225353 C610.64965305 215.75353517 610.64965305 215.75353517 609.2633779 215.7548427 C606.22166495 215.75649252 603.18000688 215.75098422 600.13829899 215.74552441 C597.96039678 215.7452424 595.78249448 215.74540053 593.60459232 215.74596691 C587.68558817 215.74625437 581.7666042 215.74036597 575.84760475 215.73339295 C569.66429146 215.72715082 563.48097773 215.72655493 557.29766178 215.72536755 C545.58573013 215.72225677 533.8738078 215.71404679 522.16188025 215.70401806 C512.80164405 215.69612041 503.44140885 215.69066152 494.08117008 215.68693066 C493.08247581 215.68652866 493.08247581 215.68652866 492.0636059 215.68611854 C486.27210693 215.68380569 480.48060789 215.68165289 474.68910885 215.67951584 C449.7525689 215.67010675 424.8160486 215.65018612 399.87950993 215.63199902 C399.87950993 287.90199902 399.87950993 360.17199902 399.87950993 434.63199902 C408.29450993 436.11699902 408.29450993 436.11699902 416.87950993 437.63199902 C420.15439657 438.2407229 423.42679695 438.85396358 426.69713688 439.48551464 C427.53865803 439.64694454 428.38017918 439.80837444 429.24720097 439.97469616 C431.95433981 440.49446 434.66109508 441.01618479 437.36779118 441.53824902 C439.28772428 441.90793952 441.2076615 442.27760868 443.12760258 442.6472578 C447.11874645 443.41608011 451.10966593 444.1860556 455.10045719 444.95670605 C460.184161 445.93817634 465.26868385 446.91533281 470.35341454 447.89146709 C474.30635536 448.65107352 478.25871362 449.41367779 482.21092129 450.17708874 C484.08477626 450.53854306 485.95883723 450.89893135 487.83311749 451.25817394 C520.97831355 457.61513446 520.97831355 457.61513446 529.55529118 467.59293652 C533.56267752 473.76360221 534.32402861 478.8920261 534.2994318 486.09635448 C534.30790134 487.01926281 534.31637089 487.94217113 534.32509708 488.89304638 C534.34839899 491.92856857 534.34949082 494.96358183 534.34825993 497.99918652 C534.35536576 500.11996696 534.36306537 502.24074548 534.37133121 504.36152172 C534.38476053 508.80150735 534.38635178 513.2413152 534.38048649 517.68131542 C534.37459293 523.35620575 534.40517564 529.03023983 534.44560337 534.70496464 C534.47151979 539.08375635 534.47435416 543.46234299 534.47071171 547.84120083 C534.47239935 549.93268135 534.48200741 552.0241717 534.499856 554.11557674 C534.52212287 557.04724343 534.51230432 559.97719101 534.4947443 562.90885448 C534.51463917 564.19032864 534.51463917 564.19032864 534.53493595 565.49769115 C534.43041042 573.05132759 531.59200297 578.5897337 526.59825993 584.19059277 C525.86607243 584.81063183 525.13388493 585.43067089 524.37950993 586.06949902 C523.64732243 586.70758495 522.91513493 587.34567089 522.16075993 588.00309277 C518.19675965 590.83355186 514.68131003 591.88132543 509.83566666 591.88926792 C508.83787727 591.89571681 507.84008788 591.90216571 506.81206244 591.90881002 C505.17871379 591.90416421 505.17871379 591.90416421 503.5123682 591.89942455 C502.34992818 591.90395567 501.18748816 591.90848678 499.98982269 591.9131552 C496.76707292 591.92362497 493.54446349 591.92512511 490.32170212 591.92276645 C486.84442397 591.9223582 483.36717907 591.93339817 479.88991642 591.94288158 C473.07861884 591.959491 466.26735588 591.96499111 459.45603975 591.96610634 C453.91894147 591.96705686 448.38185461 591.97116737 442.84475994 591.97750759 C427.1436246 591.99512001 411.44251659 592.00434649 395.7413713 592.00284664 C394.89500636 592.00276673 394.04864142 592.00268682 393.17662907 592.00260448 C392.32922985 592.00252272 391.48183063 592.00244096 390.60875265 592.00235672 C376.87629245 592.00154387 363.14394194 592.02068135 349.41151347 592.04888122 C335.30875396 592.07761288 321.20604795 592.09142135 307.10325843 592.08969367 C299.18657919 592.08902985 291.27001495 592.09451836 283.35336208 592.11604977 C276.61271183 592.13426532 269.87222868 592.13860592 263.13156446 592.12503092 C259.69354423 592.118503 256.25584457 592.11837718 252.81785488 592.13573742 C249.08748375 592.15114602 245.35795524 592.14190926 241.62760258 592.12647533 C240.54539564 592.13676246 239.46318871 592.14704959 238.34818763 592.15764844 C230.47538773 592.08564179 225.1814409 590.47319544 219.19200993 585.31949902 C212.90387908 578.01167127 210.73236971 573.3276851 210.70250797 563.51407909 C210.69593678 562.58039501 210.68936558 561.64671093 210.68259525 560.68473339 C210.66286215 557.59033154 210.65119873 554.49597825 210.64122868 551.40153027 C210.63715315 550.34410814 210.63307762 549.28668602 210.62887859 548.1972208 C210.60801641 542.59890342 210.5937161 537.00061054 210.58434391 531.40226269 C210.57328766 525.62643501 210.53889693 519.85099345 210.49917221 514.07530212 C210.47299488 509.62881294 210.46465099 505.18241552 210.46106243 500.73585606 C210.45619829 498.60726029 210.44458928 496.47866857 210.42602444 494.3501482 C210.40161292 491.36542062 210.40260206 488.38168896 210.40953922 485.39689159 C210.39032413 484.08657215 210.39032413 484.08657215 210.37072086 482.74978161 C210.43319506 475.34665676 212.75324517 469.18264337 218.06700993 463.88199902 C218.57618961 463.35090527 219.0853693 462.81981152 219.60997868 462.27262402 C226.6077223 457.21401417 234.72082931 455.55851322 243.05529118 453.96793652 C244.8245068 453.61709499 244.8245068 453.61709499 246.62946415 453.25916576 C249.82077948 452.62863889 253.01375645 452.00762535 256.20782566 451.39123058 C259.54238883 450.74550203 262.87460038 450.08784612 266.20714664 449.4318037 C273.07138226 448.08292716 279.93858785 446.74969835 286.80669498 445.4206953 C290.78937281 444.64992343 294.77126504 443.87516943 298.75304508 443.09977245 C306.0025041 441.68850724 313.25300943 440.28273616 320.50450993 438.88199902 C322.19901783 438.55458721 322.19901783 438.55458721 323.92775822 438.22056103 C327.0909164 437.61056005 330.25461292 437.00345331 333.41857243 436.39762402 C334.35526264 436.21698406 335.29195286 436.03634411 336.25702763 435.85023022 C337.53122814 435.60733761 337.53122814 435.60733761 338.83117008 435.35953808 C339.93871143 435.14735638 339.93871143 435.14735638 341.06862736 434.93088818 C342.87950993 434.63199902 342.87950993 434.63199902 344.87950993 434.63199902 C344.87950993 362.36199902 344.87950993 290.09199902 344.87950993 215.63199902 C328.96990055 215.69000683 313.06029118 215.74801464 296.66857243 215.80778027 C286.59695379 215.83332417 276.52535861 215.85760054 266.45372868 215.87613964 C261.16254954 215.88595744 255.87137108 215.89603065 250.58019352 215.90665722 C249.5855044 215.90863533 249.5855044 215.90863533 248.57072055 215.91065341 C238.54126066 215.9310271 228.51192406 215.96623061 218.48253727 216.00919628 C206.83692747 216.05906199 195.19142452 216.09129743 183.54571092 216.10244149 C177.38044119 216.10895477 171.21547707 216.12424235 165.05030537 216.1606493 C159.24399245 216.19465838 153.43811025 216.20504182 147.63170719 216.19753742 C145.50408301 216.19890975 143.376444 216.20881256 141.24890614 216.22802639 C119.23482843 216.4170365 119.23482843 216.4170365 111.03722286 208.95502567 C104.24117614 201.98022798 102.4238927 194.11668881 102.42632389 184.61684704 C102.44696903 183.37274563 102.46761417 182.12864422 102.48888493 180.84684277 C102.49454472 179.55001064 102.50020451 178.25317852 102.5060358 176.91704845 C102.52117858 173.4989947 102.56035824 170.08164021 102.60485172 166.66385937 C102.64605299 163.16440313 102.66409937 159.66483193 102.68419743 156.16520214 C102.72686682 149.32051708 102.7949764 142.47629179 102.87950993 135.63199902 C102.03662308 135.63752977 102.03662308 135.63752977 101.17670822 135.64317226 C87.46174221 135.73176619 73.7468268 135.79757024 60.03163528 135.8392477 C53.39886814 135.86008325 46.76630822 135.88832773 40.13366032 135.93375683 C33.7275404 135.97735759 27.32161926 136.00116643 20.91536236 136.01150799 C18.47663909 136.01887377 16.03792617 136.03325723 13.59928799 136.05491924 C10.17187071 136.08414152 6.74526502 136.08794705 3.31774235 136.08610058 C2.31935841 136.10048168 1.32097446 136.11486279 0.29233646 136.12967968 C-7.8335616 136.08260152 -14.93831453 134.14130434 -21.93299007 129.94449902 C-28.80760009 122.67705414 -31.26698009 116.52705521 -31.29749203 106.60587597 C-31.30406322 105.68194546 -31.31063442 104.75801495 -31.31740475 103.80608654 C-31.33713707 100.74415029 -31.34880112 97.68226313 -31.35877132 94.62028027 C-31.36284685 93.57389071 -31.36692238 92.52750114 -31.37112141 91.44940281 C-31.3919833 85.90944014 -31.40628371 80.36950224 -31.41565609 74.82950878 C-31.426712 69.1142134 -31.46110238 63.39930827 -31.50082779 57.6841507 C-31.52700665 53.28398458 -31.53534915 48.88391119 -31.53893757 44.48367405 C-31.54380135 42.37740669 -31.55540935 40.27114342 -31.57397556 38.16495228 C-31.59839029 35.21135453 -31.59739738 32.25876303 -31.59046078 29.30509472 C-31.60327084 28.44089916 -31.61608089 27.57670361 -31.62927914 26.6863203 C-31.55637089 18.13511921 -28.1644095 11.67591844 -22.12049007 5.63199902 C-15.0705758 0.30665123 -8.61497948 -0.08127806 0 0 Z " fill="#FFFFFF" transform="translate(378.1204900741577,147.3680009841919)"/>
<path d="M0 0 C1.27537628 -0.01606293 2.55075256 -0.03212585 3.86477661 -0.04867554 C5.26515027 -0.06016611 6.66553141 -0.07077413 8.06591797 -0.08056641 C8.77121517 -0.08589008 9.47651237 -0.09121376 10.20318222 -0.09669876 C13.94061954 -0.12343658 17.67802347 -0.14280425 21.41552734 -0.15722656 C24.50014102 -0.17053455 27.58408823 -0.19832609 30.66845703 -0.23925781 C34.39911187 -0.28876352 38.12916487 -0.31336999 41.86013412 -0.32045364 C43.27704307 -0.32713912 44.69394002 -0.34229051 46.11066055 -0.36634445 C54.24057138 -0.4964369 60.70866943 -0.49824587 66.93310547 5.19287109 C70.89754912 9.56392435 72.2803763 12.24626839 72.20117188 18.21142578 C71.66418991 24.18376068 70.10855095 29.99276943 68.71658325 35.8135376 C67.65690677 40.26636013 66.64300009 44.72959311 65.62841797 49.19287109 C65.40990677 50.15355499 65.19139557 51.11423889 64.96626282 52.10403442 C52.74226166 106.1659846 43.2795072 161.12234953 36.93310547 216.19287109 C36.83060486 217.08006836 36.72810425 217.96726563 36.62249756 218.88134766 C33.52545467 245.81438319 30.83101611 272.77103151 29.08740234 299.82739258 C28.93618851 302.14560586 28.77716484 304.46317256 28.61669922 306.78076172 C25.0122093 359.83292526 25.12576087 414.15838347 28.93310547 467.19287109 C29.06334272 469.06852013 29.19354991 470.94417125 29.32373047 472.81982422 C35.0387242 553.82287931 47.78980041 635.415907 71.17333984 713.31738281 C72.33083161 717.69814697 73.07910969 721.75498898 71.93310547 726.19287109 C68.68235512 731.64183658 64.72058981 734.68600135 58.93310547 737.19287109 C55.78430176 737.58055115 55.78430176 737.58055115 52.38037109 737.59692383 C51.09884155 737.609608 49.81731201 737.62229218 48.49694824 737.63536072 C47.11108233 737.63330923 45.72521753 737.63032116 44.33935547 737.62646484 C42.9049861 737.63103075 41.47061892 737.63633754 40.03625488 737.64234924 C37.03710006 737.65126131 34.03821181 737.64887862 31.0390625 737.63891602 C27.20564916 737.62741954 23.37315609 737.64765662 19.53986359 737.67683315 C16.58003957 737.69522316 13.62043507 737.69489737 10.66056824 737.68919563 C9.24764209 737.68904281 7.83470069 737.69505516 6.42182922 737.70748711 C4.44321798 737.722448 2.46445464 737.70906378 0.48583984 737.69458008 C-0.63745728 737.69441391 -1.76075439 737.69424774 -2.91809082 737.69407654 C-8.51482138 736.80322652 -12.55768557 733.33549494 -15.98632812 728.91821289 C-20.60433118 721.54464136 -21.36044183 711.96541587 -22.75439453 703.56787109 C-22.87640228 702.84564362 -22.99841003 702.12341614 -23.12411499 701.37930298 C-25.76005876 685.74701587 -28.07628718 670.06450741 -30.37939453 654.38037109 C-30.64446304 652.58862457 -30.64446304 652.58862457 -30.91488647 650.76068115 C-31.42590847 647.29490108 -31.92927891 643.82809625 -32.43017578 640.36083984 C-32.58096588 639.34101517 -32.73175598 638.32119049 -32.88711548 637.27046204 C-33.98880972 629.54525924 -34.50698286 622.03163453 -35.06689453 614.19287109 C-130.10689453 614.19287109 -225.14689453 614.19287109 -323.06689453 614.19287109 C-323.06689453 652.47287109 -323.06689453 690.75287109 -323.06689453 730.19287109 C-327.06689453 735.19287109 -327.06689453 735.19287109 -329.06689453 736.19287109 C-331.34783257 736.30558518 -333.63211804 736.35227303 -335.91577148 736.36987305 C-336.97217834 736.37972984 -336.97217834 736.37972984 -338.04992676 736.38978577 C-340.38501081 736.4095266 -342.72003052 736.42118324 -345.05517578 736.43115234 C-346.25112901 736.43726563 -346.25112901 736.43726563 -347.4712429 736.44350243 C-351.69151933 736.46436685 -355.91176321 736.47866674 -360.13208008 736.48803711 C-364.49021971 736.49910044 -368.84784859 736.53349793 -373.20580769 736.57320881 C-376.55758103 736.59936093 -379.90923246 736.60772768 -383.26109886 736.61131859 C-384.86745845 736.61618848 -386.47381245 736.62781403 -388.0800724 736.64635658 C-390.33040382 736.6707187 -392.57941092 736.66978912 -394.82983398 736.6628418 C-396.10953568 736.66870804 -397.38923737 736.67457428 -398.7077179 736.68061829 C-402.64231365 736.10932114 -404.27468754 734.96581633 -407.06689453 732.19287109 C-408.24451751 729.83762515 -408.19118684 728.44964738 -408.18994236 725.8237896 C-408.19193341 724.90019107 -408.19392446 723.97659254 -408.19597584 723.02500618 C-408.193063 722.00362151 -408.19015016 720.98223684 -408.18714905 719.92990112 C-408.18843069 718.31025111 -408.18843069 718.31025111 -408.18973821 716.6578809 C-408.19139404 713.01571918 -408.18586994 709.37360284 -408.18041992 705.73144531 C-408.18013805 703.13019817 -408.18029579 700.52895095 -408.18086243 697.92770386 C-408.18138754 692.31502685 -408.17824205 686.70236144 -408.17262459 681.08968735 C-408.16450789 672.97463895 -408.16189419 664.85959618 -408.1606366 656.74454416 C-408.15844635 643.57936741 -408.15178698 630.41419683 -408.14233398 617.24902344 C-408.13315918 604.45800813 -408.12607868 591.6669945 -408.12182617 578.87597656 C-408.12143209 577.69391448 -408.12143209 577.69391448 -408.12103004 576.48797236 C-408.11972503 572.53471883 -408.11846132 568.58146529 -408.11721814 564.62821174 C-408.10684636 531.81642698 -408.08915459 499.00464996 -408.06689453 466.19287109 C-414.66689453 466.19287109 -421.26689453 466.19287109 -428.06689453 466.19287109 C-428.18040161 458.80338569 -428.27189832 451.41438623 -428.32595539 444.02420998 C-428.35191615 440.59165368 -428.38705987 437.15973087 -428.4440918 433.72753906 C-428.50942027 429.77075096 -428.53318692 425.8142085 -428.55517578 421.85693359 C-428.58098221 420.63986725 -428.60678864 419.4228009 -428.63337708 418.16885376 C-428.63621374 409.45241955 -427.08192986 402.64897516 -421.13520813 396.04898071 C-412.71009305 387.73833097 -402.69589474 387.75774952 -391.4315033 387.83210754 C-389.95118038 387.8307978 -388.47085815 387.82816827 -386.99053961 387.82434005 C-382.94042191 387.81765626 -378.89054381 387.82959854 -374.8404566 387.84467423 C-370.4663411 387.85766087 -366.0922385 387.85324328 -361.71810913 387.85096741 C-354.14550019 387.84939633 -346.57296896 387.85878819 -339.00037956 387.87568092 C-328.05177405 387.90008885 -317.10320602 387.90787803 -306.15457625 387.9116449 C-288.39005754 387.91820656 -270.62558023 387.93816001 -252.86108398 387.96655273 C-235.60717984 387.99410066 -218.35328694 388.01533066 -201.09936523 388.02807617 C-199.50337587 388.02925843 -199.50337587 388.02925843 -197.8751443 388.03046457 C-192.53726664 388.03437975 -187.1993889 388.03817086 -181.86151111 388.04190028 C-137.59661025 388.07298732 -93.33175453 388.12581538 -49.06689453 388.19287109 C-49.06855999 387.47622567 -49.07022545 386.75958025 -49.07194138 386.0212183 C-49.08723063 379.12869873 -49.09851687 372.23618183 -49.10575366 365.34364945 C-49.10959966 361.80366173 -49.11477723 358.26368849 -49.12347412 354.72370911 C-49.34806176 260.6902491 -40.88064958 166.44753933 -25.20698547 51.94764709 C-24.88237128 49.65142771 -24.56184204 47.35467079 -24.24230957 45.05773926 C-23.73818558 41.44174557 -23.22046493 37.82794203 -22.69238091 34.21537209 C-22.40892 32.2579783 -22.13723401 30.29889045 -21.86598206 28.33976746 C-19.08416126 9.65680181 -19.08416126 9.65680181 -11.94189453 4.13037109 C-11.25869141 3.58251953 -10.57548828 3.03466797 -9.87158203 2.47021484 C-6.45188722 0.0497815 -4.17348537 0.04766051 0 0 Z M-323.06689453 466.19287109 C-323.06689453 503.15287109 -323.06689453 540.11287109 -323.06689453 578.19287109 C-229.01689453 578.19287109 -134.96689453 578.19287109 -38.06689453 578.19287109 C-39.53833642 562.41108233 -39.53833642 562.41108233 -41.25048828 546.66162109 C-41.45869237 544.83876395 -41.66635456 543.01584485 -41.87353516 541.19287109 C-42.18200052 538.49039961 -42.49303591 535.7883945 -42.81420898 533.08740234 C-45.4490413 510.82754035 -46.57270288 488.60574589 -48.06689453 466.19287109 C-138.81689453 466.19287109 -229.56689453 466.19287109 -323.06689453 466.19287109 Z " fill="#FFFFFF" transform="translate(1428.06689453125,0.80712890625)"/>
<path d="M0 0 C1.2816806 -0.0127597 2.56336121 -0.02551941 3.88388062 -0.03866577 C5.28017017 -0.0417235 6.67646176 -0.04395122 8.07275391 -0.04541016 C9.50998059 -0.05184029 10.94720597 -0.05856882 12.38442993 -0.06558228 C15.39547763 -0.07754786 18.40641067 -0.08126387 21.41748047 -0.08007812 C25.26660295 -0.07987501 29.11498647 -0.10717152 32.96393394 -0.14162254 C35.93231551 -0.16391446 38.9005199 -0.16791498 41.86897659 -0.16685867 C43.28749767 -0.16921141 44.70602386 -0.17801655 46.12446213 -0.19352341 C48.11282515 -0.21322517 50.10140581 -0.20481213 52.08984375 -0.1953125 C53.21917328 -0.19816254 54.34850281 -0.20101257 55.51205444 -0.20394897 C60.6838499 0.60475391 63.77937127 3.37476953 67.36181641 7.04052734 C72.49055247 14.24848073 73.48978026 22.09193335 74.68994141 30.66552734 C74.86645737 31.87720078 75.04297333 33.08887421 75.22483826 34.33726501 C75.70193106 37.63244954 76.17043396 40.9285999 76.63363266 44.22574997 C76.92662356 46.30691544 77.22247748 48.3876551 77.51919556 50.46829224 C88.95805772 130.73399947 97.35827083 211.40485235 100.56080055 292.44922447 C100.63820473 294.38665165 100.71763392 296.32399872 100.79883385 298.26127052 C101.59687969 317.50207627 101.80428611 336.69608251 101.74298096 355.94976807 C101.73247724 359.61868678 101.72812746 363.28761334 101.72314453 366.95654297 C101.71263704 374.06788895 101.69573152 381.17920508 101.67431641 388.29052734 C102.42803634 388.28900846 103.18175627 388.28748958 103.95831621 388.28592467 C148.63382878 388.19640462 193.30933158 388.12777719 237.98491587 388.08626603 C243.34964459 388.08126322 248.71437312 388.07608593 254.07910156 388.07080078 C255.14711855 388.06975154 256.21513553 388.0687023 257.31551667 388.06762126 C274.60674754 388.05021793 291.8979252 388.01868061 309.18912451 387.98191616 C326.93262419 387.94450478 344.67609601 387.92229107 362.41963351 387.91417336 C373.36759444 387.90868601 384.31540494 387.8913571 395.26331957 387.85886148 C402.77159237 387.83771118 410.27978746 387.83132848 417.78808789 387.83652183 C422.11944984 387.8390828 426.45054899 387.83516796 430.78186417 387.81370544 C434.7510671 387.79418126 438.71983154 387.79329509 442.68905504 387.80693176 C444.12126464 387.80861613 445.55350207 387.80359152 446.98565726 387.79099461 C457.16755893 387.70667976 465.68509727 388.55050586 473.54931641 395.47802734 C478.80587128 400.69495995 480.90271539 407.3859888 481.12841797 414.63647461 C481.12779137 417.04338719 481.10559174 419.45036422 481.06494141 421.85693359 C481.05928162 423.13156967 481.05362183 424.40620575 481.04779053 425.71946716 C481.02929422 429.07849157 480.99347549 432.43639072 480.94897461 435.79510498 C480.90776664 439.23423638 480.88972557 442.67348489 480.86962891 446.11279297 C480.82568181 452.83905046 480.75671437 459.56463544 480.67431641 466.29052734 C474.07431641 466.29052734 467.47431641 466.29052734 460.67431641 466.29052734 C460.68319885 469.5868364 460.6920813 472.88314545 460.70123291 476.27934265 C460.78080371 506.49664948 460.84053199 536.71393295 460.87857772 566.93132005 C460.88358064 570.89049287 460.88875792 574.84966544 460.89404297 578.80883789 C460.89509221 579.59704864 460.89614145 580.38525939 460.89722249 581.19735531 C460.91463488 593.96540544 460.94617715 606.73338364 460.98292759 619.50139108 C461.02031384 632.59938447 461.04254735 645.69734015 461.05067039 658.79538471 C461.05616299 666.87972556 461.07352011 674.96386311 461.10598227 683.0481414 C461.12959572 689.24380243 461.13214211 695.43930798 461.12674713 701.63500786 C461.12785024 704.17914839 461.135842 706.72329642 461.15113831 709.2673912 C461.1709648 712.73414507 461.16628159 716.20002072 461.15533447 719.66679382 C461.16698584 720.67943997 461.1786372 721.69208611 461.19064164 722.7354185 C461.15309308 727.11804391 461.10294221 729.59271559 458.76925278 733.39201069 C455.12671141 736.69303002 452.6801951 736.43011392 447.82543945 736.4675293 C446.76903259 736.47738609 446.76903259 736.47738609 445.69128418 736.48744202 C443.35620012 736.50718285 441.02118042 736.51883949 438.68603516 736.52880859 C437.49008193 736.53492188 437.49008193 736.53492188 436.26996803 736.54115868 C432.0496916 736.5620231 427.82944772 736.57632299 423.60913086 736.58569336 C419.25099123 736.59675669 414.89336235 736.63115418 410.53540325 736.67086506 C407.1836299 736.69701718 403.83197848 736.70538393 400.48011208 736.70897484 C398.87375249 736.71384473 397.26739848 736.72547028 395.66113853 736.74401283 C393.41080711 736.76837495 391.16180002 736.76744537 388.91137695 736.76049805 C387.63167526 736.76636429 386.35197357 736.77223053 385.03349304 736.77827454 C381.08129106 736.20442099 379.44310263 735.12222005 376.67431641 732.29052734 C364.23557763 694.97431103 375.67431641 653.62527308 375.67431641 614.29052734 C280.63431641 614.29052734 185.59431641 614.29052734 87.67431641 614.29052734 C87.34431641 618.91052734 87.01431641 623.53052734 86.67431641 628.29052734 C86.17093765 632.34792667 85.63712487 636.38113096 85.03759766 640.42333984 C84.8776683 641.52792038 84.71773895 642.63250092 84.55296326 643.77055359 C84.03691434 647.31978695 83.51268138 650.86773598 82.98681641 654.41552734 C82.80824097 655.62808197 82.62966553 656.8406366 82.44567871 658.0899353 C81.207266 666.49298521 79.94878593 674.89287303 78.67431641 683.29052734 C78.52162292 684.29726501 78.36892944 685.30400269 78.21160889 686.34124756 C77.42391359 691.51433472 76.62000386 696.68437302 75.78646851 701.85028076 C75.54858232 703.33003828 75.31427704 704.81037676 75.08389282 706.2913208 C71.71833283 727.80589867 71.71833283 727.80589867 64.54931641 733.35302734 C63.86611328 733.90087891 63.18291016 734.44873047 62.47900391 735.01318359 C59.05930909 737.43361694 56.78090724 737.43573793 52.60742188 737.48339844 C51.33204559 737.49946136 50.05666931 737.51552429 48.74264526 737.53207397 C47.34227161 737.54356455 45.94189047 737.55417256 44.54150391 737.56396484 C43.4835581 737.57195036 43.4835581 737.57195036 42.40423965 737.5800972 C38.66680234 737.60683502 34.9293984 737.62620269 31.19189453 737.640625 C28.10728085 737.65393299 25.02333364 737.68172453 21.93896484 737.72265625 C18.20831 737.77216195 14.478257 737.79676843 10.74728775 737.80385208 C9.33037881 737.81053755 7.91348185 737.82568895 6.49676132 737.84974289 C-1.63314951 737.97983533 -8.10124755 737.9816443 -14.32568359 732.29052734 C-18.2925875 727.91676149 -19.70452058 725.18964413 -19.625 719.20898438 C-19.03984194 713.50345461 -17.27122258 708.04160417 -15.68136597 702.5489502 C5.99977693 627.2397801 17.8037573 549.04789233 23.42431641 470.97802734 C23.48348236 470.16398437 23.54264832 469.34994141 23.60360718 468.51123047 C25.56066172 441.1369082 25.88038626 413.78379106 25.86181641 386.35302734 C25.86154953 385.46842583 25.86128265 384.58382431 25.86100769 383.67241669 C25.851056 357.36320379 25.71400281 331.11140325 23.85467529 304.85595703 C23.66313172 302.131436 23.48106369 299.40637598 23.29980469 296.68115234 C19.82871351 245.17774403 13.70140223 193.95471216 5.13665771 143.05615234 C4.69997399 140.4440054 4.27208546 137.83062934 3.84863281 135.21630859 C0.18882283 112.63293978 -4.31323381 90.23931351 -9.01318359 67.85302734 C-9.15503963 67.17706387 -9.29689568 66.50110039 -9.44305038 65.80465317 C-13.79397699 45.08666716 -13.79397699 45.08666716 -18.6237793 24.4765625 C-19.88825804 18.73692857 -20.3898494 14.37944542 -17.63818359 8.97802734 C-12.4191101 2.91261761 -8.00029621 0.05408261 0 0 Z M100.67431641 466.29052734 C99.68431641 481.14052734 98.69431641 495.99052734 97.67431641 511.29052734 C96.52424006 522.66076819 95.33103382 534.00705108 93.98681641 545.35302734 C93.5034744 549.50280808 93.02623049 553.65328901 92.54936218 557.80381775 C92.25792633 560.33169689 91.96321209 562.85920105 91.66462708 565.38624573 C91.53416489 566.50200485 91.4037027 567.61776398 91.26928711 568.76733398 C91.15398148 569.74191055 91.03867584 570.71648712 90.9198761 571.72059631 C90.6109045 574.52389867 90.6109045 574.52389867 90.67431641 578.29052734 C184.72431641 578.29052734 278.77431641 578.29052734 375.67431641 578.29052734 C375.67431641 541.33052734 375.67431641 504.37052734 375.67431641 466.29052734 C284.92431641 466.29052734 194.17431641 466.29052734 100.67431641 466.29052734 Z " fill="#FFFFFF" transform="translate(19.32568359375,0.70947265625)"/>
</svg>
